<?xml version="1.0" encoding="utf-8"?>
<!-- Generator: Adobe Illustrator 25.2.1, SVG Export Plug-In . SVG Version: 6.00 Build 0)  -->
<svg version="1.1" id="Layer_1" xmlns="http://www.w3.org/2000/svg" xmlns:xlink="http://www.w3.org/1999/xlink" x="0px" y="0px"
	 viewBox="0 0 15 15" style="enable-background:new 0 0 15 15;" xml:space="preserve">
<style type="text/css">
	.st0{fill:#F59FC4;}
</style>
<path class="st0" d="M12.53,3.22c-0.9-1.89-2.83-3.2-5.07-3.2c-3.09,0-5.61,2.52-5.61,5.61v5.79c0,1.14,0.47,2.26,1.28,3.06
	l0.42,0.42c0.05,0.05,0.12,0.08,0.19,0.08c0,0,0,0,0.01,0c0.07,0,0.14-0.02,0.19-0.07l0.9-0.8l0.75-0.65l1.71,1.45
	c0.01,0.01,0.02,0.02,0.03,0.02l0,0c0.01,0.01,0.02,0.01,0.03,0.02h0.01c0.01,0,0.02,0.01,0.03,0.01h0.01c0.01,0,0.02,0,0.03,0
	s0.01,0,0.02,0c0.01,0,0.02,0,0.03,0s0.01,0,0.02,0c0.01,0,0.02,0,0.02-0.01c0.01,0,0.02,0,0.02-0.01c0.01,0,0.01-0.01,0.02-0.01
	c0.01,0,0.02-0.01,0.03-0.01l0.01-0.01c0.01-0.01,0.02-0.01,0.03-0.02l1.71-1.45l0.75,0.65l0.89,0.79c0.05,0.05,0.12,0.07,0.19,0.07
	h0.01c0.07,0,0.14-0.03,0.19-0.08l0.42-0.42c0.81-0.8,1.28-1.92,1.28-3.06V5.63C13.08,4.76,12.88,3.95,12.53,3.22z"/>
<g>
	<path d="M9.47,6.69C8.66,6.69,8,6.04,8,5.23s0.66-1.47,1.47-1.47s1.47,0.66,1.47,1.47S10.28,6.69,9.47,6.69z M9.47,4.29
		c-0.52,0-0.94,0.42-0.94,0.94s0.42,0.94,0.94,0.94s0.94-0.42,0.94-0.94S9.99,4.29,9.47,4.29z"/>
	<path d="M5.46,6.69c-0.81,0-1.47-0.66-1.47-1.47s0.66-1.47,1.47-1.47s1.47,0.66,1.47,1.47S6.27,6.69,5.46,6.69z M5.46,4.29
		c-0.52,0-0.94,0.42-0.94,0.94s0.42,0.94,0.94,0.94S6.4,5.75,6.4,5.23S5.98,4.29,5.46,4.29z"/>
</g>
</svg>
