<?xml version="1.0" encoding="utf-8"?>
<!-- Generator: Adobe Illustrator 25.2.1, SVG Export Plug-In . SVG Version: 6.00 Build 0)  -->
<svg version="1.1" id="Layer_1" xmlns="http://www.w3.org/2000/svg" xmlns:xlink="http://www.w3.org/1999/xlink" x="0px" y="0px"
	 viewBox="0 0 15 15" style="enable-background:new 0 0 15 15;" xml:space="preserve">
<style type="text/css">
	.st0{fill:#3800FD;}
	.st1{fill:none;stroke:#000000;stroke-width:0.5;stroke-miterlimit:10;}
</style>
<path class="st0" d="M12.56,3.22c-0.9-1.89-2.83-3.2-5.07-3.2c-3.09,0-5.61,2.52-5.61,5.61v5.79c0,1.14,0.47,2.26,1.28,3.06
	l0.42,0.42c0.05,0.05,0.12,0.08,0.19,0.08c0,0,0,0,0.01,0c0.07,0,0.14-0.02,0.19-0.07l0.9-0.8l0.75-0.65l1.71,1.45
	c0.01,0.01,0.02,0.02,0.03,0.02c0,0,0,0,0,0c0.01,0.01,0.02,0.01,0.03,0.02c0,0,0.01,0,0.01,0c0.01,0,0.02,0.01,0.03,0.01
	c0,0,0.01,0,0.01,0c0.01,0,0.02,0,0.03,0c0.01,0,0.01,0,0.02,0c0.01,0,0.02,0,0.03,0c0.01,0,0.01,0,0.02,0c0.01,0,0.02,0,0.02-0.01
	c0.01,0,0.02,0,0.02-0.01c0.01,0,0.01-0.01,0.02-0.01c0.01,0,0.02-0.01,0.03-0.01c0,0,0.01-0.01,0.01-0.01
	c0.01-0.01,0.02-0.01,0.03-0.02l1.71-1.45l0.75,0.65l0.89,0.79c0.05,0.05,0.12,0.07,0.19,0.07c0,0,0.01,0,0.01,0
	c0.07,0,0.14-0.03,0.19-0.08l0.42-0.42c0.81-0.8,1.28-1.92,1.28-3.06V5.63C13.1,4.77,12.91,3.95,12.56,3.22z"/>
<g>
	<path d="M9.5,6.7c-0.81,0-1.47-0.66-1.47-1.47S8.69,3.76,9.5,3.76c0.81,0,1.47,0.66,1.47,1.47S10.31,6.7,9.5,6.7z M9.5,4.29
		c-0.52,0-0.94,0.42-0.94,0.94c0,0.52,0.42,0.94,0.94,0.94c0.52,0,0.94-0.42,0.94-0.94C10.43,4.71,10.01,4.29,9.5,4.29z"/>
	<path d="M5.49,6.7c-0.81,0-1.47-0.66-1.47-1.47s0.66-1.47,1.47-1.47s1.47,0.66,1.47,1.47S6.3,6.7,5.49,6.7z M5.49,4.29
		c-0.52,0-0.94,0.42-0.94,0.94c0,0.52,0.42,0.94,0.94,0.94c0.52,0,0.94-0.42,0.94-0.94C6.42,4.71,6.01,4.29,5.49,4.29z"/>
</g>
<path class="st1" d="M3.45,9.53c0.16-0.31,0.37-0.6,0.63-0.85l0.33-0.33C4.45,8.31,4.5,8.29,4.56,8.29c0,0,0,0,0.01,0
	c0.05,0,0.11,0.01,0.15,0.05l0.71,0.63l0.59,0.51l1.35-1.14c0.01-0.01,0.02-0.01,0.03-0.02c0,0,0,0,0,0c0.01,0,0.02-0.01,0.03-0.01
	c0,0,0,0,0.01,0c0.01,0,0.02,0,0.03-0.01c0,0,0.01,0,0.01,0c0.01,0,0.02,0,0.02,0c0,0,0.01,0,0.01,0c0.01,0,0.01,0,0.02,0
	c0.01,0,0.01,0,0.02,0c0.01,0,0.01,0,0.02,0c0.01,0,0.01,0,0.02,0c0,0,0.01,0,0.01,0.01c0.01,0,0.01,0.01,0.02,0.01
	c0,0,0.01,0,0.01,0.01c0.01,0,0.01,0.01,0.02,0.02l1.35,1.14l0.59-0.51l0.71-0.63c0.04-0.04,0.1-0.06,0.15-0.05c0,0,0,0,0.01,0
	c0.05,0,0.11,0.02,0.15,0.06l0.33,0.33c0.25,0.25,0.46,0.54,0.63,0.85"/>
</svg>
